<?xml version="1.0" encoding="utf-8"?>
<!-- Generator: Adobe Illustrator 19.2.1, SVG Export Plug-In . SVG Version: 6.00 Build 0)  -->
<svg version="1.1" xmlns="http://www.w3.org/2000/svg" xmlns:xlink="http://www.w3.org/1999/xlink" x="0px" y="0px"
	 viewBox="0 0 652 652" style="enable-background:new 0 0 652 652;" xml:space="preserve">
<style type="text/css">
	.st0{fill:#0C0407;}
	.st1{fill:#003559;}
</style>
<g id="Layer_1">
	<g>
		<path class="st0" d="M240,670.9l1.6-0.1c0.1,0.6,0.3,1.2,0.5,1.6c0.3,0.4,0.7,0.7,1.3,1c0.6,0.3,1.2,0.4,2,0.4
			c0.7,0,1.2-0.1,1.7-0.3s0.9-0.5,1.1-0.8s0.4-0.7,0.4-1.1c0-0.4-0.1-0.8-0.4-1.1s-0.6-0.6-1.2-0.8c-0.3-0.1-1.1-0.3-2.3-0.6
			s-2-0.6-2.5-0.8c-0.6-0.3-1.1-0.7-1.4-1.2c-0.3-0.5-0.5-1-0.5-1.6c0-0.7,0.2-1.3,0.6-1.8s0.9-1,1.6-1.3s1.5-0.4,2.4-0.4
			c1,0,1.8,0.2,2.5,0.5c0.7,0.3,1.3,0.8,1.7,1.4s0.6,1.3,0.6,2l-1.6,0.1c-0.1-0.8-0.4-1.4-0.9-1.8c-0.5-0.4-1.3-0.6-2.2-0.6
			c-1,0-1.8,0.2-2.3,0.6c-0.5,0.4-0.7,0.8-0.7,1.4c0,0.5,0.2,0.8,0.5,1.1c0.3,0.3,1.2,0.6,2.6,0.9c1.4,0.3,2.3,0.6,2.9,0.8
			c0.8,0.3,1.3,0.8,1.7,1.3s0.5,1.1,0.5,1.8c0,0.7-0.2,1.3-0.6,1.9c-0.4,0.6-1,1.1-1.7,1.4c-0.7,0.3-1.6,0.5-2.5,0.5
			c-1.2,0-2.1-0.2-2.9-0.5c-0.8-0.3-1.4-0.9-1.9-1.5C240.3,672.6,240,671.8,240,670.9z"/>
		<path class="st0" d="M258.8,672.1l1.6,0.2c-0.3,1-0.7,1.7-1.4,2.2s-1.6,0.8-2.7,0.8c-1.4,0-2.4-0.4-3.2-1.3
			c-0.8-0.8-1.2-2-1.2-3.5c0-1.6,0.4-2.8,1.2-3.7s1.9-1.3,3.1-1.3c1.2,0,2.3,0.4,3.1,1.3s1.2,2,1.2,3.6c0,0.1,0,0.2,0,0.4h-7
			c0.1,1,0.3,1.8,0.9,2.4s1.2,0.8,2,0.8c0.6,0,1.1-0.2,1.5-0.5S258.6,672.7,258.8,672.1z M253.6,669.5h5.2c-0.1-0.8-0.3-1.4-0.6-1.8
			c-0.5-0.6-1.2-0.9-2-0.9c-0.7,0-1.3,0.2-1.8,0.7S253.6,668.7,253.6,669.5z"/>
		<path class="st0" d="M268.8,672.1l1.6,0.2c-0.3,1-0.7,1.7-1.4,2.2s-1.6,0.8-2.7,0.8c-1.4,0-2.4-0.4-3.2-1.3
			c-0.8-0.8-1.2-2-1.2-3.5c0-1.6,0.4-2.8,1.2-3.7s1.9-1.3,3.1-1.3c1.2,0,2.3,0.4,3.1,1.3s1.2,2,1.2,3.6c0,0.1,0,0.2,0,0.4h-7
			c0.1,1,0.3,1.8,0.9,2.4s1.2,0.8,2,0.8c0.6,0,1.1-0.2,1.5-0.5S268.6,672.7,268.8,672.1z M263.6,669.5h5.2c-0.1-0.8-0.3-1.4-0.6-1.8
			c-0.5-0.6-1.2-0.9-2-0.9c-0.7,0-1.3,0.2-1.8,0.7S263.7,668.7,263.6,669.5z"/>
		<path class="st0" d="M272.4,675.1v-12.9h1.6v7.3l3.7-3.8h2l-3.6,3.5l3.9,5.9h-2l-3.1-4.8l-1.1,1.1v3.7H272.4z"/>
		<path class="st0" d="M285.3,675.1l-5-12.9h1.8l3.3,9.4c0.3,0.8,0.5,1.5,0.7,2.1c0.2-0.7,0.4-1.4,0.7-2.1l3.5-9.4h1.7l-5,12.9
			H285.3z"/>
		<path class="st0" d="M298.8,672.1l1.6,0.2c-0.3,1-0.7,1.7-1.4,2.2s-1.6,0.8-2.7,0.8c-1.4,0-2.4-0.4-3.2-1.3
			c-0.8-0.8-1.2-2-1.2-3.5c0-1.6,0.4-2.8,1.2-3.7s1.9-1.3,3.1-1.3c1.2,0,2.3,0.4,3.1,1.3s1.2,2,1.2,3.6c0,0.1,0,0.2,0,0.4h-7
			c0.1,1,0.3,1.8,0.9,2.4s1.2,0.8,2,0.8c0.6,0,1.1-0.2,1.5-0.5S298.6,672.7,298.8,672.1z M293.6,669.5h5.2c-0.1-0.8-0.3-1.4-0.6-1.8
			c-0.5-0.6-1.2-0.9-2-0.9c-0.7,0-1.3,0.2-1.8,0.7S293.7,668.7,293.6,669.5z"/>
		<path class="st0" d="M308.5,671.7l1.6,0.2c-0.2,1.1-0.6,1.9-1.3,2.5c-0.7,0.6-1.6,0.9-2.6,0.9c-1.3,0-2.3-0.4-3.1-1.3
			c-0.8-0.8-1.2-2-1.2-3.6c0-1,0.2-1.9,0.5-2.6s0.8-1.3,1.5-1.7c0.7-0.4,1.4-0.6,2.2-0.6c1,0,1.8,0.3,2.5,0.8s1.1,1.2,1.2,2.2
			l-1.5,0.2c-0.1-0.6-0.4-1.1-0.8-1.4s-0.8-0.5-1.3-0.5c-0.8,0-1.4,0.3-1.9,0.9c-0.5,0.6-0.7,1.5-0.7,2.7c0,1.3,0.2,2.2,0.7,2.7
			s1.1,0.9,1.9,0.9c0.6,0,1.1-0.2,1.6-0.6S308.4,672.4,308.5,671.7z"/>
		<path class="st0" d="M314.9,673.7l0.2,1.4c-0.4,0.1-0.8,0.1-1.2,0.1c-0.6,0-1-0.1-1.3-0.3s-0.5-0.4-0.7-0.7s-0.2-0.9-0.2-1.9V667
			h-1.2v-1.2h1.2v-2.3l1.6-0.9v3.3h1.6v1.2h-1.6v5.5c0,0.5,0,0.7,0.1,0.9s0.1,0.2,0.3,0.3c0.1,0.1,0.3,0.1,0.5,0.1
			C314.4,673.7,314.6,673.7,314.9,673.7z"/>
		<path class="st0" d="M315.9,670.4c0-1.7,0.5-3,1.4-3.8c0.8-0.7,1.8-1,2.9-1c1.3,0,2.3,0.4,3.1,1.3s1.2,2,1.2,3.5
			c0,1.2-0.2,2.1-0.5,2.8c-0.4,0.7-0.9,1.2-1.6,1.6s-1.4,0.6-2.3,0.6c-1.3,0-2.4-0.4-3.2-1.3C316.3,673.2,315.9,672,315.9,670.4z
			 M317.5,670.4c0,1.2,0.3,2.1,0.8,2.7c0.5,0.6,1.2,0.9,2,0.9c0.8,0,1.4-0.3,2-0.9s0.8-1.5,0.8-2.7c0-1.2-0.3-2-0.8-2.6
			c-0.5-0.6-1.2-0.9-2-0.9c-0.8,0-1.4,0.3-2,0.9S317.5,669.2,317.5,670.4z"/>
		<path class="st0" d="M326.4,675.1v-9.3h1.4v1.4c0.4-0.7,0.7-1.1,1-1.3c0.3-0.2,0.6-0.3,1-0.3c0.5,0,1.1,0.2,1.6,0.5l-0.5,1.5
			c-0.4-0.2-0.8-0.3-1.2-0.3c-0.3,0-0.7,0.1-0.9,0.3s-0.5,0.5-0.6,0.9c-0.2,0.6-0.3,1.2-0.3,1.8v4.9H326.4z"/>
		<path class="st0" d="M332.6,675.1v-12.9h1.7v11.4h6.3v1.5H332.6z"/>
		<path class="st0" d="M341.9,670.4c0-1.7,0.5-3,1.4-3.8c0.8-0.7,1.8-1,2.9-1c1.3,0,2.3,0.4,3.1,1.3s1.2,2,1.2,3.5
			c0,1.2-0.2,2.1-0.5,2.8c-0.4,0.7-0.9,1.2-1.6,1.6s-1.4,0.6-2.3,0.6c-1.3,0-2.4-0.4-3.2-1.3C342.3,673.2,341.9,672,341.9,670.4z
			 M343.5,670.4c0,1.2,0.3,2.1,0.8,2.7c0.5,0.6,1.2,0.9,2,0.9c0.8,0,1.4-0.3,2-0.9s0.8-1.5,0.8-2.7c0-1.2-0.3-2-0.8-2.6
			c-0.5-0.6-1.2-0.9-2-0.9c-0.8,0-1.4,0.3-2,0.9S343.5,669.2,343.5,670.4z"/>
		<path class="st0" d="M352.2,675.8l1.5,0.2c0.1,0.5,0.2,0.8,0.5,1c0.4,0.3,0.9,0.4,1.6,0.4c0.7,0,1.3-0.1,1.7-0.4s0.7-0.7,0.8-1.2
			c0.1-0.3,0.1-1,0.1-2c-0.7,0.8-1.6,1.2-2.6,1.2c-1.3,0-2.3-0.5-3-1.4s-1.1-2-1.1-3.3c0-0.9,0.2-1.7,0.5-2.5
			c0.3-0.8,0.8-1.3,1.4-1.7s1.3-0.6,2.2-0.6c1.1,0,2,0.4,2.7,1.3v-1.1h1.5v8.1c0,1.5-0.1,2.5-0.4,3.1c-0.3,0.6-0.8,1.1-1.4,1.4
			c-0.6,0.4-1.4,0.5-2.4,0.5c-1.1,0-2-0.3-2.7-0.8C352.5,677.6,352.2,676.9,352.2,675.8z M353.5,670.2c0,1.2,0.2,2.1,0.7,2.7
			s1.1,0.8,1.8,0.8c0.7,0,1.3-0.3,1.8-0.8s0.7-1.4,0.7-2.6c0-1.1-0.3-2-0.8-2.6c-0.5-0.6-1.1-0.9-1.8-0.9c-0.7,0-1.3,0.3-1.8,0.9
			C353.7,668.3,353.5,669.1,353.5,670.2z"/>
		<path class="st0" d="M361.9,670.4c0-1.7,0.5-3,1.4-3.8c0.8-0.7,1.8-1,2.9-1c1.3,0,2.3,0.4,3.1,1.3s1.2,2,1.2,3.5
			c0,1.2-0.2,2.1-0.5,2.8c-0.4,0.7-0.9,1.2-1.6,1.6s-1.4,0.6-2.3,0.6c-1.3,0-2.4-0.4-3.2-1.3C362.3,673.2,361.9,672,361.9,670.4z
			 M363.5,670.4c0,1.2,0.3,2.1,0.8,2.7c0.5,0.6,1.2,0.9,2,0.9c0.8,0,1.4-0.3,2-0.9s0.8-1.5,0.8-2.7c0-1.2-0.3-2-0.8-2.6
			c-0.5-0.6-1.2-0.9-2-0.9c-0.8,0-1.4,0.3-2,0.9S363.5,669.2,363.5,670.4z"/>
		<path class="st0" d="M372.9,675.1v-1.8h1.8v1.8H372.9z"/>
		<path class="st0" d="M386.9,670.6l1.7,0.4c-0.4,1.4-1,2.5-1.9,3.2s-2.1,1.1-3.4,1.1c-1.4,0-2.5-0.3-3.4-0.8
			c-0.9-0.6-1.5-1.4-2-2.5c-0.5-1.1-0.7-2.2-0.7-3.5c0-1.3,0.3-2.5,0.8-3.5c0.5-1,1.2-1.8,2.2-2.3c0.9-0.5,2-0.8,3.1-0.8
			c1.3,0,2.4,0.3,3.3,1s1.5,1.6,1.8,2.8l-1.7,0.4c-0.3-0.9-0.7-1.6-1.3-2s-1.3-0.6-2.1-0.6c-1,0-1.8,0.2-2.5,0.7
			c-0.7,0.5-1.1,1.1-1.4,1.9c-0.3,0.8-0.4,1.6-0.4,2.5c0,1.1,0.2,2.1,0.5,2.9c0.3,0.8,0.8,1.4,1.5,1.8s1.4,0.6,2.2,0.6
			c1,0,1.8-0.3,2.4-0.8S386.7,671.6,386.9,670.6z"/>
		<path class="st0" d="M389.9,670.4c0-1.7,0.5-3,1.4-3.8c0.8-0.7,1.8-1,2.9-1c1.3,0,2.3,0.4,3.1,1.3s1.2,2,1.2,3.5
			c0,1.2-0.2,2.1-0.5,2.8c-0.4,0.7-0.9,1.2-1.6,1.6s-1.4,0.6-2.3,0.6c-1.3,0-2.4-0.4-3.2-1.3C390.3,673.2,389.9,672,389.9,670.4z
			 M391.5,670.4c0,1.2,0.3,2.1,0.8,2.7c0.5,0.6,1.2,0.9,2,0.9c0.8,0,1.4-0.3,2-0.9s0.8-1.5,0.8-2.7c0-1.2-0.3-2-0.8-2.6
			c-0.5-0.6-1.2-0.9-2-0.9c-0.8,0-1.4,0.3-2,0.9S391.5,669.2,391.5,670.4z"/>
		<path class="st0" d="M400.5,675.1v-9.3h1.4v1.3c0.3-0.5,0.7-0.8,1.2-1.1s1-0.4,1.7-0.4c0.7,0,1.3,0.1,1.7,0.4
			c0.4,0.3,0.8,0.7,0.9,1.2c0.7-1.1,1.7-1.6,2.9-1.6c0.9,0,1.6,0.3,2.1,0.8s0.7,1.3,0.7,2.4v6.4h-1.6v-5.9c0-0.6-0.1-1.1-0.2-1.4
			c-0.1-0.3-0.3-0.5-0.6-0.7s-0.6-0.3-0.9-0.3c-0.7,0-1.2,0.2-1.6,0.7c-0.4,0.4-0.7,1.1-0.7,2.1v5.4h-1.6V669c0-0.7-0.1-1.2-0.4-1.6
			s-0.7-0.5-1.3-0.5c-0.4,0-0.9,0.1-1.2,0.4c-0.4,0.2-0.7,0.6-0.8,1s-0.3,1.1-0.3,2v4.8H400.5z"/>
	</g>
</g>
<g id="Layer_2">
	<g>
		<path class="st1" d="M109.6,371.6c3.7-2.6,6.4-2.4,9.7-5.6c3-3-1.1-6.5-4.2-8.8c-3.3-2.5-1.3-2.9,2.9-3.7
			c11.9-2.3,27.7-6.2,34.3-8c16.5-4.6,31-16.2,30.9-29.6c-0.1-9.1-6.5-16.9-13.3-22.4c-6.8-5.5-14-8.7-16.3-9.4
			c-4.8-1.4-2.3,1.8-2.3,1.8s4.3,1.5,13.3,8.2c6.6,4.9,12.9,12.5,13,20.7c0.2,21.2-28.7,27.6-28.7,27.6s26.3-7.8,26.1-27.6
			c-0.1-8.4-9-19.4-21-27.4c-8.9-5.9-19.2-9.2-21.4-9.5c-6.2-1-3.2,2-3.2,2s8.2,2.1,18.7,9.3c8.6,5.9,16.8,15.4,16.9,26.4
			c0.1,14.2-14.1,21.6-20.3,24.7c-9.6,4.8-19.9,7.2-19.9,7.2s11.8-3.1,21.2-9.1c8.6-5.4,16-14.6,16-22.8
			c-0.1-15.2-16.1-27.2-29.4-34.2c-7.1-3.7-13.5-5.8-16.2-6.4c-3.1-0.7-7.6-0.9-2.3,2.4c3.9,2.4,9.4,6,14.1,10.3
			c8.4,7.8,15.9,18.6,16,28.5c0.1,12.6-8.4,22.5-18,26.4c-8.7,3.6-17.3,4.5-20,5.1c-4,0.8-3.8,4.1-3.1,4.9c2,2.5,7.3,4.3,7.3,8.6
			c0,7.3-9.9,8.2-11,8.2c-1.2,0-11-0.8-11-8.2c0-4.3,5.2-6.1,7.3-8.6c0.6-0.8,0.9-4.1-3.2-4.9c-2.7-0.5-11.3-1.5-19.9-5.1
			c-9.6-3.9-18.2-13.8-18-26.4c0.1-9.9,7.6-20.7,16-28.5c4.6-4.3,10.1-7.8,14.1-10.3c5.3-3.3,0.8-3.1-2.3-2.4
			c-2.8,0.6-9.2,2.8-16.2,6.4c-13.3,6.9-29.3,19-29.4,34.2c-0.1,8.2,7.4,17.3,16,22.8c9.4,6,21.2,9.1,21.2,9.1s-10.3-2.4-19.9-7.2
			c-6.2-3.1-20.5-10.5-20.4-24.7c0.1-11.1,8.3-20.5,16.9-26.4c10.5-7.2,18.7-9.3,18.7-9.3s3-3-3.2-2c-2.2,0.4-12.5,3.6-21.4,9.5
			c-12.1,8-21,19-21.1,27.4c-0.2,19.8,26,27.6,26,27.6s-29-6.4-28.7-27.6c0.1-8.2,6.4-15.7,13-20.7c9-6.7,13.3-8.2,13.3-8.2
			s2.5-3.2-2.3-1.8c-2.3,0.7-9.5,3.8-16.3,9.4c-6.8,5.5-13.2,13.3-13.3,22.4c-0.1,13.4,14.4,25.1,30.9,29.6c6.6,1.8,22.5,5.7,34.3,8
			c4.2,0.8,6.2,1.2,2.9,3.7c-3.1,2.3-7.2,5.8-4.2,8.8c3.3,3.3,6,3,9.7,5.6c3.7,2.6,5,5.6,10.6,5.6
			C104.6,377.2,105.9,374.2,109.6,371.6"/>
		<path class="st1" d="M259.8,334.7c0-9.3-5.1-13.7-16.1-18.3c-8-3.3-14-5.7-14-11.4c0-1.9,0.5-7.8,11.6-7.8
			c9.2,0,15.8,3.9,15.8,3.9v-10c0,0-7.9-2.9-16.7-2.9c-23.5,0-24,14.8-24,17.5c0,10.9,8.7,14.8,19.2,18.7c2.7,1,11.5,3.3,11.5,10.2
			c0,2.7-1.6,8.6-14.7,8.6c-8.3,0-15.2-3.4-15.2-3.4v10c0,0,5.7,2.8,16.6,2.8C254.3,352.7,259.8,342.1,259.8,334.7"/>
		<path class="st1" d="M296,336.8c0-5.5-2.7-9.4-11.6-13.3c-6.4-2.8-12.4-5.3-12.4-9.6c0-1.6,0.8-6,8.8-6c7.6,0,12.8,3.6,12.8,3.6
			v-9.1c0,0-4.8-2.7-14.5-2.7c-18.4,0-19,12-19,14.2c0,7.9,5.4,11.5,13.1,14.9c3.5,1.5,11,3.5,11,9.2c0,2.2-1.9,6.5-10.7,6.5
			c-6.5,0-12.5-3-12.5-3v9c0,0,4,2.2,13.4,2.2C290.3,352.4,296,344.3,296,336.8"/>
	</g>
	<polygon class="st1" points="392.9,300.6 382.9,300.6 382.9,337 361.8,300.6 347.8,300.6 347.8,350.9 357.7,350.9 357.7,313.3 
		379.5,350.9 392.9,350.9 	"/>
	<path class="st1" d="M320.1,310.4l8.2,21.3h-16.4L320.1,310.4z M335.7,350.9h10.8l-4.4-11.3l-3-7.8l-12-31.2H313l-12,31.2l-3,7.8
		l-4.4,11.3h10.8l4.3-11.1h22.5L335.7,350.9z"/>
	<g>
		<path class="st1" d="M421.9,322.9v7.4h12.4v12.8c0,0-2,1.3-7.4,1.3c-18,0-19.3-14.7-19.3-17.7c0-5.9,2.1-10.9,5.4-14.3
			c3.5-3.6,8.7-5,15.8-5c8.8,0,14.5,3.1,14.5,3.1v-8.3c0,0-7.3-2.5-15.6-2.5c-9.8,0-18,2.7-23.6,7.7c-5,4.5-7.9,12.5-7.9,19.1
			c0,6.2,2.9,26,30.3,26c10.3,0,18.6-3.7,18.6-3.7l0-25.9H421.9z"/>
	</g>
	<polygon class="st1" points="586,300.6 576.1,300.6 576.1,337 555,300.6 541,300.6 541,350.9 550.9,350.9 550.9,313.3 572.7,350.9 
		586,350.9 	"/>
	<g>
		<path class="st1" d="M615.1,322.9v7.4h12.4v12.8c0,0-2,1.3-7.4,1.3c-18,0-19.3-14.7-19.3-17.7c0-5.9,2.1-10.9,5.4-14.3
			c3.5-3.6,8.7-5,15.8-5c8.8,0,14.5,3.1,14.5,3.1v-8.3c0,0-7.3-2.5-15.6-2.5c-9.8,0-18,2.7-23.6,7.7c-5,4.5-7.9,12.5-7.9,19.1
			c0,6.2,2.9,26,30.3,26c10.3,0,18.6-3.7,18.6-3.7l0-25.9H615.1z"/>
	</g>
	<polygon class="st1" points="475.4,328.6 496.4,289.5 485.2,289.5 469.5,318.6 452.6,289.5 441.1,289.5 464,328.8 451.1,352.8 
		462.4,352.8 469.9,338.8 	"/>
	<g>
		<path class="st1" d="M511.4,344.4c-0.6,0-15.4,1-15.4-18.6c0-19.1,15.1-18.5,15.4-18.5c0.3,0,15.4-0.6,15.4,18.5
			C526.8,345.4,512,344.4,511.4,344.4 M527.6,304.5c-5.9-4.5-12.7-5.1-16.2-5.1c-3.6,0-10.4,0.6-16.3,5.1
			c-5.3,4.1-10.7,10.4-10.7,21.4c0,10.1,3.9,15.9,8.9,20.5c5.8,5.5,15.4,6.3,18.1,6.3c2.7,0,12.2-0.8,18.1-6.3
			c4.9-4.6,8.9-10.4,8.9-20.5C538.4,314.9,533,308.6,527.6,304.5"/>
	</g>
</g>
</svg>
